<svg xmlns="http://www.w3.org/2000/svg" viewBox="0 0 64 64" id="cart"><path fill="#3EBBDD" d="M33 54c-2.757 0-5-2.243-5-5s2.243-5 5-5 5 2.243 5 5-2.243 5-5 5zm0-8.333c-1.838 0-3.333 1.495-3.333 3.333s1.495 3.333 3.333 3.333 3.333-1.495 3.333-3.333-1.495-3.333-3.333-3.333zM47 54c-2.757 0-5-2.243-5-5s2.243-5 5-5 5 2.243 5 5-2.243 5-5 5zm0-8.333c-1.838 0-3.333 1.495-3.333 3.333s1.495 3.333 3.333 3.333 3.333-1.495 3.333-3.333-1.495-3.333-3.333-3.333z"></path><path fill="#4D4D4D" d="M61.775 16.369A.998.998 0 0 0 61 16H20.658l-.681-3.17a1 1 0 0 0-.978-.79h-4v2h3.191l5.831 27.17c.1.461.507.79.979.79h31a1 1 0 0 0 .979-.796l5-24a.998.998 0 0 0-.204-.835zM58.937 22H52.18l.667-4h6.923l-.833 4zm-35.275 8h5.491l.667 4h-5.299l-.859-4zM41 22v-4h9.82l-.667 4H41zm8.82 2-.667 4H41v-4h8.82zM39 22h-9.153l-.667-4H39v4zm0 2v4h-8.153l-.667-4H39zm-10.18 4h-5.586l-.859-4h5.778l.667 4zm2.36 2H39v4h-7.153l-.667-4zM39 36v4h-6.153l-.667-4H39zm2 0h6.82l-.667 4H41v-4zm0-2v-4h7.82l-.667 4H41zm9.847-4h6.423l-.833 4H50.18l.667-4zm.333-2 .667-4h6.673l-.833 4H51.18zM27.153 18l.667 4h-5.874l-.858-4h6.065zM24.95 36h5.203l.667 4h-5.011l-.859-4zm30.237 4H49.18l.667-4h6.173l-.833 4z"></path><path fill="#E6E6E6" d="M6 23h8v2H6zM16 23h2v2h-2zM6 35h2v2H6zM10 35h8v2h-8zM9 29h5v2H9zM4 29h3v2H4zM16 29h2v2h-2z"></path><path fill="#3EBBDD" d="M11.04 8H6.96C4.225 8 2 10.225 2 13.04A4.966 4.966 0 0 0 6.96 18h4.08c2.735 0 4.96-2.225 4.96-5.04A4.966 4.966 0 0 0 11.04 8z"></path><path fill="#FFF" d="M11 14H9a1 1 0 1 1 0-2h2a1 1 0 1 1 0 2z"></path></svg>